<svg xmlns="http://www.w3.org/2000/svg" xmlns:xlink="http://www.w3.org/1999/xlink" width="1064" zoomAndPan="magnify" viewBox="0 0 798 199.499995" height="266" preserveAspectRatio="xMidYMid meet" version="1.0"><defs><clipPath id="05b429f10f"><path d="M 68.378906 79.773438 L 175.265625 79.773438 L 175.265625 174.265625 L 68.378906 174.265625 Z M 68.378906 79.773438 " clip-rule="nonzero"/></clipPath><clipPath id="89c356f9cf"><path d="M 100.140625 174.238281 C 89.171875 174.238281 78.613281 171.9375 68.75 167.378906 L 69.832031 165.042969 C 79.363281 169.433594 89.5625 171.65625 100.15625 171.65625 C 140.144531 171.65625 172.675781 139.128906 172.675781 99.140625 C 172.675781 92.828125 171.851562 86.546875 170.265625 80.496094 L 172.75 79.839844 C 174.410156 86.101562 175.253906 92.601562 175.253906 99.140625 C 175.253906 140.546875 141.5625 174.238281 100.15625 174.238281 " clip-rule="nonzero"/></clipPath><clipPath id="1c25127050"><path d="M 25.007812 24.011719 L 166.746094 24.011719 L 166.746094 158 L 25.007812 158 Z M 25.007812 24.011719 " clip-rule="nonzero"/></clipPath><clipPath id="598e9d703c"><path d="M 53.054688 157.644531 C 35.246094 143.292969 25.027344 121.976562 25.027344 99.140625 C 25.027344 57.734375 58.714844 24.046875 100.121094 24.046875 C 127.679688 24.046875 152.980469 39.109375 166.152344 63.339844 L 163.890625 64.574219 C 151.1875 41.164062 126.746094 26.605469 100.140625 26.605469 C 60.152344 26.605469 27.625 59.136719 27.625 99.125 C 27.625 121.171875 37.488281 141.78125 54.679688 155.625 Z M 53.054688 157.644531 " clip-rule="nonzero"/></clipPath><clipPath id="6852585421"><path d="M 10.292969 9.292969 L 189.980469 9.292969 L 189.980469 188.980469 L 10.292969 188.980469 Z M 10.292969 9.292969 " clip-rule="nonzero"/></clipPath><clipPath id="0d60930023"><path d="M 145.039062 163.378906 L 144.757812 163.585938 C 131.976562 172.425781 116.636719 177.5625 100.140625 177.5625 C 89.46875 177.5625 79.289062 175.414062 70 171.546875 L 63.964844 168.707031 C 60.507812 166.910156 57.238281 164.855469 54.117188 162.578125 L 48.886719 158.429688 C 32.257812 144.023438 21.738281 122.777344 21.738281 99.140625 C 21.738281 86.324219 24.839844 74.199219 30.3125 63.492188 C 34.125 56.054688 39.097656 49.289062 44.980469 43.480469 C 59.144531 29.429688 78.652344 20.738281 100.140625 20.738281 C 128.539062 20.738281 153.449219 35.914062 167.199219 58.578125 L 170.394531 64.371094 C 170.46875 64.351562 170.542969 64.351562 170.617188 64.351562 C 174.074219 64.351562 176.878906 67.152344 176.878906 70.609375 C 176.878906 72.460938 176.074219 74.121094 174.804688 75.242188 L 176.5625 81.617188 C 177.851562 87.257812 178.542969 93.105469 178.542969 99.125 C 178.542969 125.65625 165.273438 149.179688 145.039062 163.363281 M 100.140625 9.34375 C 50.625 9.34375 10.339844 49.628906 10.339844 99.140625 C 10.339844 148.65625 50.625 188.941406 100.140625 188.941406 C 149.65625 188.941406 189.9375 148.65625 189.9375 99.140625 C 189.9375 49.628906 149.65625 9.34375 100.140625 9.34375 " clip-rule="nonzero"/></clipPath><clipPath id="878593f076"><path d="M 30 43.371094 L 183.785156 43.371094 L 183.785156 176.589844 L 30 176.589844 Z M 30 43.371094 " clip-rule="nonzero"/></clipPath><clipPath id="31a860deb5"><path d="M 174.804688 75.242188 C 173.703125 76.253906 172.226562 76.871094 170.617188 76.871094 C 167.164062 76.871094 164.359375 74.046875 164.359375 70.609375 C 164.359375 67.246094 167.03125 64.480469 170.375 64.371094 L 170.527344 64.371094 C 174.058594 64.371094 176.859375 67.171875 176.859375 70.628906 C 176.859375 72.480469 176.054688 74.140625 174.785156 75.261719 M 63.761719 168.835938 L 63.742188 168.835938 L 63.40625 169.0625 L 63.21875 169.152344 L 62.863281 169.339844 L 61.105469 169.921875 C 56.808594 169.921875 54.007812 167.117188 54.007812 163.660156 L 54.042969 162.914062 C 54.625 159.644531 57.203125 157.402344 60.265625 157.402344 L 61.949219 157.570312 L 63.070312 158.054688 L 63.253906 158.148438 L 63.609375 158.355469 L 63.777344 158.464844 L 64.265625 158.820312 L 64.5625 159.082031 L 64.84375 159.363281 L 64.992188 159.53125 L 65.199219 159.792969 L 65.515625 160.242188 L 65.722656 160.578125 L 65.851562 160.820312 L 65.984375 161.101562 L 66.113281 161.398438 L 66.171875 161.566406 L 66.226562 161.773438 L 66.355469 162.222656 L 66.449219 162.707031 L 66.488281 163.027344 L 66.507812 163.136719 L 66.523438 163.472656 L 66.507812 163.960938 L 66.507812 164.164062 L 66.488281 164.351562 L 66.414062 164.78125 L 66.300781 165.285156 L 66.171875 165.679688 L 66.078125 165.921875 L 65.945312 166.238281 L 65.871094 166.390625 L 65.796875 166.558594 L 65.648438 166.800781 L 65.386719 167.230469 L 65.085938 167.621094 L 64.730469 168.015625 L 64.375 168.351562 L 64.226562 168.480469 L 64.039062 168.632812 L 63.816406 168.800781 M 170.617188 58.074219 L 168.285156 58.242188 C 166.117188 58.855469 165.089844 59.304688 164.152344 59.867188 L 162.734375 60.839844 C 161.519531 61.976562 160.976562 62.574219 160.492188 63.25 L 125.550781 63.25 L 145.320312 43.480469 L 124.503906 43.480469 L 67.609375 100.375 L 67.609375 63.210938 L 45.019531 85.800781 L 45.019531 43.480469 L 30.3125 43.480469 L 30.3125 121.320312 L 52.902344 98.730469 L 52.902344 153.515625 C 52.773438 153.609375 52.640625 153.71875 52.511719 153.8125 L 51.203125 154.953125 C 49.933594 156.46875 49.335938 157.402344 48.867188 158.410156 L 47.726562 163.660156 C 47.726562 170.554688 53.351562 176.199219 60.265625 176.199219 C 64.191406 176.199219 67.722656 174.386719 70 171.527344 L 71.289062 169.714844 C 72.09375 167.902344 72.355469 167.082031 72.523438 166.21875 L 72.785156 164.539062 C 72.785156 159.492188 70.75 155.792969 67.609375 153.535156 L 67.609375 106.746094 L 124.503906 163.660156 L 145.320312 163.660156 L 85.230469 103.570312 L 110.847656 77.953125 L 129.566406 77.953125 L 129.566406 140.492188 L 144.273438 140.492188 L 144.273438 77.953125 L 160.492188 77.953125 C 162.769531 81.09375 166.472656 83.128906 170.617188 83.128906 L 170.785156 83.128906 L 172.617188 83 C 174.542969 82.550781 175.589844 82.15625 176.5625 81.617188 C 180.484375 79.503906 183.15625 75.355469 183.15625 70.589844 C 183.15625 63.679688 177.53125 58.054688 170.617188 58.054688 " clip-rule="nonzero"/></clipPath><clipPath id="df406aa931"><path d="M 53.664062 157.226562 L 66.832031 157.226562 L 66.832031 170 L 53.664062 170 Z M 53.664062 157.226562 " clip-rule="nonzero"/></clipPath><clipPath id="4db6644868"><path d="M 66.488281 164.128906 L 66.488281 164.164062 L 66.46875 164.351562 L 66.394531 164.78125 L 66.28125 165.285156 L 66.152344 165.679688 L 66.058594 165.921875 L 65.925781 166.238281 L 65.851562 166.390625 L 65.777344 166.558594 L 65.628906 166.800781 L 65.367188 167.230469 L 65.085938 167.621094 L 64.917969 167.808594 L 64.730469 168.015625 L 64.375 168.351562 L 64.226562 168.480469 L 63.910156 168.722656 L 63.742188 168.835938 L 63.40625 169.042969 L 63.21875 169.136719 L 62.863281 169.324219 L 61.105469 169.902344 C 56.789062 169.902344 53.988281 167.097656 53.988281 163.640625 C 53.988281 160.183594 56.789062 157.382812 60.246094 157.382812 L 61.929688 157.550781 L 63.050781 158.035156 L 63.238281 158.128906 L 63.574219 158.335938 L 63.742188 158.449219 L 64.058594 158.691406 L 64.226562 158.820312 L 64.527344 159.082031 L 64.804688 159.363281 L 64.957031 159.53125 L 65.179688 159.792969 L 65.496094 160.242188 L 65.703125 160.578125 L 65.835938 160.820312 L 65.964844 161.101562 L 66.09375 161.398438 L 66.152344 161.566406 L 66.226562 161.773438 L 66.355469 162.222656 L 66.449219 162.707031 L 66.488281 163.027344 L 66.507812 163.15625 L 66.523438 163.492188 L 66.523438 163.976562 " clip-rule="nonzero"/></clipPath><clipPath id="ac2016d163"><path d="M 220 69.242188 L 270.433594 69.242188 L 270.433594 129.347656 L 220 129.347656 Z M 220 69.242188 " clip-rule="nonzero"/></clipPath><clipPath id="e783a90ddb"><path d="M 270.40625 129.066406 L 260.503906 129.066406 L 239.503906 101.488281 L 228.496094 113.445312 L 228.496094 129.066406 L 220.292969 129.066406 L 220.292969 69.3125 L 228.496094 69.3125 L 228.496094 102.851562 L 259.046875 69.3125 L 268.875 69.3125 L 245.21875 95.078125 Z M 270.40625 129.066406 " clip-rule="nonzero"/></clipPath><clipPath id="34788752f6"><path d="M 281.332031 69.242188 L 329.601562 69.242188 L 329.601562 129.347656 L 281.332031 129.347656 Z M 281.332031 69.242188 " clip-rule="nonzero"/></clipPath><clipPath id="56cb11a6ff"><path d="M 304.898438 103.019531 C 310.019531 103.019531 313.941406 101.898438 316.691406 99.65625 C 319.4375 97.414062 320.78125 94.085938 320.78125 89.714844 C 320.78125 85.4375 319.417969 82.222656 316.691406 80.019531 C 313.960938 77.8125 310.039062 76.730469 304.898438 76.730469 L 289.691406 76.730469 L 289.691406 103.019531 Z M 320.089844 129.046875 L 308.226562 110.289062 C 306.863281 110.398438 305.757812 110.457031 304.898438 110.457031 L 289.691406 110.457031 L 289.691406 129.066406 L 281.507812 129.066406 L 281.507812 69.3125 L 304.898438 69.3125 C 312.46875 69.3125 318.316406 71.066406 322.445312 74.5625 C 326.574219 78.054688 328.628906 83.027344 328.628906 89.453125 C 328.628906 94.292969 327.507812 98.367188 325.246094 101.65625 C 322.988281 104.945312 319.773438 107.335938 315.570312 108.828125 L 329.488281 129.066406 Z M 320.089844 129.046875 " clip-rule="nonzero"/></clipPath><clipPath id="09cffea2b2"><path d="M 335.519531 69.242188 L 397.492188 69.242188 L 397.492188 129.347656 L 335.519531 129.347656 Z M 335.519531 69.242188 " clip-rule="nonzero"/></clipPath><clipPath id="4d458bb2a3"><path d="M 353.890625 107.128906 L 378.984375 107.128906 L 366.355469 78.09375 Z M 388.457031 129.066406 L 382.144531 114.546875 L 350.640625 114.546875 L 344.417969 129.066406 L 335.785156 129.066406 L 362.335938 69.3125 L 370.875 69.3125 L 397.351562 129.066406 Z M 388.457031 129.066406 " clip-rule="nonzero"/></clipPath><clipPath id="3ca173fd79"><path d="M 393.503906 69.3125 L 440.195312 69.3125 L 440.195312 76.824219 L 393.503906 76.824219 Z M 412.710938 76.824219 L 420.914062 76.824219 L 420.914062 129.066406 L 412.710938 129.066406 Z M 412.710938 76.824219 " clip-rule="nonzero"/></clipPath><clipPath id="dc8b6adced"><path d="M 441.089844 68.621094 L 504.308594 68.621094 L 504.308594 129.96875 L 441.089844 129.96875 Z M 441.089844 68.621094 " clip-rule="nonzero"/></clipPath><clipPath id="bf8bafd4eb"><path d="M 461.328125 79.214844 C 457.777344 81.269531 454.9375 84.035156 452.828125 87.546875 C 450.714844 91.0625 449.671875 94.910156 449.671875 99.113281 C 449.671875 103.316406 450.714844 107.1875 452.828125 110.71875 C 454.9375 114.25 457.761719 117.050781 461.328125 119.125 C 464.898438 121.199219 468.746094 122.246094 472.894531 122.246094 C 477.042969 122.246094 480.875 121.199219 484.386719 119.125 C 487.898438 117.050781 490.683594 114.25 492.757812 110.71875 C 494.832031 107.1875 495.878906 103.316406 495.878906 99.113281 C 495.878906 94.910156 494.851562 91.042969 492.757812 87.546875 C 490.664062 84.054688 487.898438 81.269531 484.386719 79.214844 C 480.875 77.160156 477.0625 76.132812 472.894531 76.132812 C 468.730469 76.132812 464.878906 77.160156 461.328125 79.214844 M 488.648438 72.804688 C 493.449219 75.476562 497.261719 79.140625 500.042969 83.773438 C 502.828125 88.40625 504.230469 93.527344 504.230469 99.09375 C 504.230469 104.664062 502.828125 109.800781 500.042969 114.511719 C 497.261719 119.21875 493.449219 122.898438 488.648438 125.609375 C 483.84375 128.320312 478.558594 129.664062 472.820312 129.664062 C 467.085938 129.664062 461.796875 128.320312 456.976562 125.609375 C 452.15625 122.898438 448.363281 119.199219 445.578125 114.511719 C 442.792969 109.820312 441.390625 104.683594 441.390625 99.09375 C 441.390625 93.507812 442.792969 88.40625 445.578125 83.773438 C 448.363281 79.140625 452.15625 75.476562 456.9375 72.804688 C 461.722656 70.132812 467.007812 68.789062 472.820312 68.789062 C 478.574219 68.789062 483.84375 70.132812 488.648438 72.804688 " clip-rule="nonzero"/></clipPath><clipPath id="a14d08086e"><path d="M 510.535156 68.308594 L 556.625 68.308594 L 556.625 129.65625 L 510.535156 129.65625 Z M 510.535156 68.308594 " clip-rule="nonzero"/></clipPath><clipPath id="04ab4ec30e"><path d="M 543.113281 77.792969 C 540.125 76.917969 537.375 76.46875 534.871094 76.46875 C 531.398438 76.46875 528.632812 77.140625 526.558594 78.46875 C 524.484375 79.792969 523.4375 81.644531 523.4375 83.980469 C 523.4375 86.089844 524.074219 87.808594 525.324219 89.136719 L 529.941406 92.292969 C 531.769531 93.058594 534.292969 93.957031 537.546875 94.984375 C 541.582031 96.238281 544.851562 97.433594 547.355469 98.570312 C 549.859375 99.710938 551.988281 101.414062 553.761719 103.65625 C 555.539062 105.898438 556.417969 108.867188 556.417969 112.566406 C 556.417969 115.988281 555.480469 118.976562 553.632812 121.535156 C 551.78125 124.09375 549.1875 126.078125 545.859375 127.476562 C 542.535156 128.878906 538.703125 129.570312 534.367188 129.570312 C 529.996094 129.570312 525.71875 128.710938 521.570312 127.011719 C 517.421875 125.308594 513.832031 123.03125 510.808594 120.191406 L 514.46875 113.109375 C 517.308594 115.894531 520.523438 118.042969 524.074219 119.554688 C 527.625 121.070312 531.078125 121.816406 534.441406 121.816406 C 538.421875 121.816406 541.582031 121.03125 543.878906 119.460938 C 546.175781 117.890625 547.335938 115.78125 547.335938 113.109375 C 547.335938 110.996094 546.699219 109.261719 545.46875 107.894531 L 540.722656 104.644531 C 538.816406 103.839844 536.238281 102.964844 533.003906 101.992188 C 529.023438 100.796875 525.773438 99.636719 523.269531 98.496094 C 520.765625 97.359375 518.65625 95.675781 516.917969 93.453125 C 515.179688 91.230469 514.320312 88.296875 514.320312 84.652344 C 514.320312 81.457031 515.199219 78.652344 516.972656 76.207031 C 518.746094 73.757812 521.214844 71.871094 524.410156 70.582031 C 527.605469 69.292969 531.25 68.621094 535.472656 68.621094 C 539.058594 68.621094 542.570312 69.144531 546.007812 70.207031 C 549.445312 71.273438 552.511719 72.675781 555.183594 74.429688 L 551.765625 81.773438 C 548.980469 80 546.082031 78.691406 543.09375 77.8125 " clip-rule="nonzero"/></clipPath><clipPath id="d41492ac16"><path d="M 562.621094 69.3125 L 609.3125 69.3125 L 609.3125 76.824219 L 562.621094 76.824219 Z M 581.808594 76.824219 L 590.011719 76.824219 L 590.011719 129.066406 L 581.808594 129.066406 Z M 581.808594 76.824219 " clip-rule="nonzero"/></clipPath><clipPath id="4699e223e9"><path d="M 619.554688 69.3125 L 661.050781 69.3125 L 661.050781 76.730469 L 619.554688 76.730469 Z M 619.554688 76.730469 L 627.753906 76.730469 L 627.753906 95.171875 L 619.554688 95.171875 Z M 619.554688 95.171875 L 657.539062 95.171875 L 657.539062 102.609375 L 619.554688 102.609375 Z M 619.554688 102.609375 L 627.753906 102.609375 L 627.753906 121.628906 L 619.554688 121.628906 Z M 619.554688 121.628906 L 662.078125 121.628906 L 662.078125 129.046875 L 619.554688 129.046875 Z M 619.554688 121.628906 " clip-rule="nonzero"/></clipPath><clipPath id="0d8fd9ca45"><path d="M 670.605469 68.621094 L 724.480469 68.621094 L 724.480469 129.96875 L 670.605469 129.96875 Z M 670.605469 68.621094 " clip-rule="nonzero"/></clipPath><clipPath id="4662949591"><path d="M 711.5 78.054688 C 708.492188 76.710938 705.390625 76.058594 702.195312 76.058594 C 697.992188 76.058594 694.105469 77.085938 690.59375 79.140625 C 687.078125 81.195312 684.277344 83.960938 682.222656 87.472656 C 680.167969 90.984375 679.140625 94.835938 679.140625 99.039062 C 679.140625 103.207031 680.167969 107.035156 682.222656 110.566406 C 684.277344 114.097656 687.0625 116.882812 690.59375 118.9375 C 694.125 120.992188 697.992188 122.003906 702.195312 122.003906 C 705.316406 122.003906 708.398438 121.367188 711.40625 120.078125 C 714.414062 118.789062 717.089844 117.050781 719.421875 114.828125 L 724.375 120.210938 C 721.347656 123.160156 717.855469 125.496094 713.875 127.160156 C 709.894531 128.824219 705.839844 129.683594 701.746094 129.683594 C 696.046875 129.683594 690.855469 128.335938 686.128906 125.628906 C 681.398438 122.917969 677.679688 119.238281 674.933594 114.566406 C 672.1875 109.894531 670.84375 104.757812 670.84375 99.113281 C 670.84375 93.546875 672.226562 88.425781 674.992188 83.792969 C 677.757812 79.160156 681.511719 75.496094 686.296875 72.824219 C 691.078125 70.152344 696.347656 68.808594 702.082031 68.808594 C 706.230469 68.808594 710.269531 69.59375 714.15625 71.160156 C 718.039062 72.730469 721.421875 74.9375 724.261719 77.777344 L 719.40625 83.660156 C 717.125 81.269531 714.492188 79.402344 711.464844 78.074219 " clip-rule="nonzero"/></clipPath><clipPath id="d02a40f126"><path d="M 779.027344 69.3125 L 787.304688 69.3125 L 787.304688 95.9375 L 779.027344 95.9375 Z M 736.667969 69.3125 L 744.871094 69.3125 L 744.871094 95.9375 L 736.667969 95.9375 Z M 736.667969 95.9375 L 787.304688 95.9375 L 787.304688 103.375 L 736.667969 103.375 Z M 736.667969 103.375 L 744.871094 103.375 L 744.871094 129.066406 L 736.667969 129.066406 Z M 779.027344 103.375 L 787.304688 103.375 L 787.304688 129.066406 L 779.027344 129.066406 Z M 779.027344 103.375 " clip-rule="nonzero"/></clipPath></defs><g clip-path="url(#05b429f10f)"><g clip-path="url(#89c356f9cf)"><path fill="#e26d26" d="M 0.996094 0 L 199.273438 0 L 199.273438 198.277344 L 0.996094 198.277344 Z M 0.996094 0 " fill-opacity="1" fill-rule="nonzero"/></g></g><g clip-path="url(#1c25127050)"><g clip-path="url(#598e9d703c)"><path fill="#e26d26" d="M 0.996094 0 L 199.273438 0 L 199.273438 198.277344 L 0.996094 198.277344 Z M 0.996094 0 " fill-opacity="1" fill-rule="nonzero"/></g></g><g clip-path="url(#6852585421)"><g clip-path="url(#0d60930023)"><path fill="#03334e" d="M 0.996094 0 L 199.273438 0 L 199.273438 198.277344 L 0.996094 198.277344 Z M 0.996094 0 " fill-opacity="1" fill-rule="nonzero"/></g></g><g clip-path="url(#878593f076)"><g clip-path="url(#31a860deb5)"><path fill="#03334e" d="M 0.996094 0 L 199.273438 0 L 199.273438 198.277344 L 0.996094 198.277344 Z M 0.996094 0 " fill-opacity="1" fill-rule="nonzero"/></g></g><g clip-path="url(#df406aa931)"><g clip-path="url(#4db6644868)"><path fill="#ffffff" d="M 0.996094 0 L 199.273438 0 L 199.273438 198.277344 L 0.996094 198.277344 Z M 0.996094 0 " fill-opacity="1" fill-rule="nonzero"/></g></g><g clip-path="url(#ac2016d163)"><g clip-path="url(#e783a90ddb)"><path fill="#03334e" d="M 210.953125 59.277344 L 796.726562 59.277344 L 796.726562 139 L 210.953125 139 Z M 210.953125 59.277344 " fill-opacity="1" fill-rule="nonzero"/></g></g><g clip-path="url(#34788752f6)"><g clip-path="url(#56cb11a6ff)"><path fill="#03334e" d="M 210.953125 59.277344 L 796.726562 59.277344 L 796.726562 139 L 210.953125 139 Z M 210.953125 59.277344 " fill-opacity="1" fill-rule="nonzero"/></g></g><g clip-path="url(#09cffea2b2)"><g clip-path="url(#4d458bb2a3)"><path fill="#03334e" d="M 210.953125 59.277344 L 796.726562 59.277344 L 796.726562 139 L 210.953125 139 Z M 210.953125 59.277344 " fill-opacity="1" fill-rule="nonzero"/></g></g><g clip-path="url(#3ca173fd79)"><path fill="#03334e" d="M 210.953125 59.277344 L 796.726562 59.277344 L 796.726562 139 L 210.953125 139 Z M 210.953125 59.277344 " fill-opacity="1" fill-rule="nonzero"/></g><g clip-path="url(#dc8b6adced)"><g clip-path="url(#bf8bafd4eb)"><path fill="#03334e" d="M 210.953125 59.277344 L 796.726562 59.277344 L 796.726562 139 L 210.953125 139 Z M 210.953125 59.277344 " fill-opacity="1" fill-rule="nonzero"/></g></g><g clip-path="url(#a14d08086e)"><g clip-path="url(#04ab4ec30e)"><path fill="#03334e" d="M 210.953125 59.277344 L 796.726562 59.277344 L 796.726562 139 L 210.953125 139 Z M 210.953125 59.277344 " fill-opacity="1" fill-rule="nonzero"/></g></g><g clip-path="url(#d41492ac16)"><path fill="#e26d26" d="M 210.953125 59.277344 L 796.726562 59.277344 L 796.726562 139 L 210.953125 139 Z M 210.953125 59.277344 " fill-opacity="1" fill-rule="nonzero"/></g><g clip-path="url(#4699e223e9)"><path fill="#e26d26" d="M 210.953125 59.277344 L 796.726562 59.277344 L 796.726562 139 L 210.953125 139 Z M 210.953125 59.277344 " fill-opacity="1" fill-rule="nonzero"/></g><g clip-path="url(#0d8fd9ca45)"><g clip-path="url(#4662949591)"><path fill="#e26d26" d="M 210.953125 59.277344 L 796.726562 59.277344 L 796.726562 139 L 210.953125 139 Z M 210.953125 59.277344 " fill-opacity="1" fill-rule="nonzero"/></g></g><g clip-path="url(#d02a40f126)"><path fill="#e26d26" d="M 210.953125 59.277344 L 796.726562 59.277344 L 796.726562 139 L 210.953125 139 Z M 210.953125 59.277344 " fill-opacity="1" fill-rule="nonzero"/></g></svg>